<?xml version="1.0" encoding="UTF-8" standalone="no"?>
<svg
   width="147.319"
   height="29.910742"
   viewBox="0 0 855.37095 173.99999"
   shape-rendering="geometricPrecision"
   text-rendering="geometricPrecision"
   image-rendering="optimizeQuality"
   fill-rule="evenodd"
   clip-rule="evenodd"
   version="1.1"
   id="svg151"
   sodipodi:docname="logo.svg"
   inkscape:version="1.1.1 (3bf5ae0d25, 2021-09-20)"
   xmlns:inkscape="http://www.inkscape.org/namespaces/inkscape"
   xmlns:sodipodi="http://sodipodi.sourceforge.net/DTD/sodipodi-0.dtd"
   xmlns="http://www.w3.org/2000/svg"
   xmlns:svg="http://www.w3.org/2000/svg">
  <defs
     id="defs155" />
  <sodipodi:namedview
     id="namedview153"
     pagecolor="#505050"
     bordercolor="#eeeeee"
     borderopacity="1"
     inkscape:pageshadow="0"
     inkscape:pageopacity="0"
     inkscape:pagecheckerboard="0"
     showgrid="false"
     fit-margin-top="0"
     fit-margin-left="0"
     fit-margin-right="0"
     fit-margin-bottom="0"
     inkscape:zoom="10.125"
     inkscape:cx="73.679012"
     inkscape:cy="14.962963"
     inkscape:window-width="2560"
     inkscape:window-height="1369"
     inkscape:window-x="-8"
     inkscape:window-y="-8"
     inkscape:window-maximized="1"
     inkscape:current-layer="svg151" />
  <circle
     fill="#aa437b"
     cx="86.115364"
     cy="87"
     r="87"
     id="circle83" />
  <path
     fill="#898989"
     d="m 86.115368,27 c 33.000002,0 60.000002,27 60.000002,60 0,33 -27,60 -60.000002,60 -33,0 -60,-27 -60,-60 0,-33 27,-60 60,-60 z"
     id="path85" />
  <path
     fill="#fefefe"
     d="m 86.115368,21 c 37.000002,0 66.000002,29 66.000002,66 0,36 -29,66 -66.000002,66 -36,0 -66,-30 -66,-66 0,-37 30,-66 66,-66 z m 0,6 c 33.000002,0 60.000002,27 60.000002,60 0,33 -27,60 -60.000002,60 -33,0 -60,-27 -60,-60 0,-33 27,-60 60,-60 z"
     id="path87" />
  <circle
     fill="#fefefe"
     cx="65.115364"
     cy="68"
     r="10"
     id="circle89" />
  <circle
     fill="#fefefe"
     cx="103.11536"
     cy="68"
     r="10"
     id="circle91" />
  <circle
     fill="#fefefe"
     cx="65.115364"
     cy="106"
     r="10"
     id="circle93" />
  <circle
     fill="#fefefe"
     cx="103.11536"
     cy="106"
     r="10"
     id="circle95" />
  <path
     fill="#fefefe"
     d="m 86.115368,6 c 33.000002,0 62.000002,22 74.000002,52 -14,-27 -42,-46 -74.000002,-46 -32,0 -60,19 -74,46 13,-30 41,-52 74,-52 z"
     id="path97" />
  <path
     fill="#fefefe"
     d="m 155.11537,113 c -10,30 -37,51 -69.000002,51 -32,0 -59,-21 -69,-51 11,27 38,46 69,46 31.000002,0 58.000002,-19 69.000002,-46 z"
     id="path99" />
  <path
     fill="#aa437b"
     d="m 264.11537,61 c 2,0 3,1 5,3 1,1 3,3 3,4 1,2 2,3 2,5 1,2 1,4 1,6 0,3 -1,6 -2,9 -1,3 -3,5 -5,7 -3,2 -5,4 -8,5 -4,1 -7,1 -10,1 h -27 c -3,0 -4,0 -5,-1 -1,-1 -2,-3 -2,-5 V 33 c 0,-2 1,-4 2,-5 1,-1 2,-1 5,-1 h 26 c 3,0 6,0 9,1 3,0 5,2 7,3 2,2 4,4 5,6 1,2 2,5 2,9 0,3 -1,5 -2,8 -2,3 -4,5 -6,6 z m -6,17 c 0,-3 -1,-6 -2,-7 -2,-2 -5,-3 -8,-3 h -15 v 19 h 15 c 2,0 4,0 5,-1 1,0 2,-1 3,-2 1,-1 2,-2 2,-3 z m -25,-23 h 17 c 1,-1 2,-1 3,-1 0,-1 1,-2 1,-3 1,-1 1,-2 1,-3 0,-2 -1,-4 -2,-5 -1,-2 -3,-2 -5,-2 h -15 z"
     id="path101" />
  <path
     fill="#aa437b"
     d="m 328.11537,86 h -24 l -5,13 c 0,1 0,2 -1,2 h -15 c -1,-1 -1,-1 -1,-2 l 23,-67 c 0,-1 0,-2 1,-2 0,-1 1,-2 1,-2 1,-1 2,-1 3,-1 h 12 c 1,0 1,0 2,1 1,0 1,1 2,1 0,1 1,2 1,3 l 22,67 v 2 h -16 l -1,-1 z m -21,-13 h 17 l -4,-14 -4,-15 h -1 l -4,15 z"
     id="path103" />
  <path
     fill="#aa437b"
     d="m 414.11537,36 c 0,2 -1,3 -1,5 -1,1 -2,2 -3,4 l -35,42 1,1 h 38 v 13 h -54 c -2,0 -3,0 -4,-1 -2,-1 -2,-2 -2,-4 v -3 c 0,-2 0,-3 1,-4 0,-2 1,-3 2,-4 l 36,-44 h -32 c -1,0 -2,-1 -2,-3 v -9 -2 h 48 c 3,0 4,0 5,1 1,1 2,2 2,5 z"
     id="path105" />
  <path
     fill="#aa437b"
     d="m 465.11537,86 h -25 l -4,13 c 0,1 0,2 -1,2 h -16 v -2 l 22,-67 c 1,-1 1,-2 2,-2 0,-1 1,-2 1,-2 1,-1 2,-1 2,-1 h 13 c 1,0 1,0 2,1 1,0 1,1 2,1 0,1 1,2 1,3 l 22,67 v 2 h -16 l -1,-1 z m -21,-13 h 17 l -4,-14 -4,-15 h -1 l -4,15 z"
     id="path107" />
  <path
     fill="#aa437b"
     d="m 535.11537,86 h -25 l -4,13 c 0,1 0,2 -1,2 h -16 v -2 l 22,-67 c 1,-1 1,-2 2,-2 0,-1 1,-2 1,-2 1,-1 1,-1 2,-1 h 13 c 0,0 1,0 2,1 l 1,1 c 1,1 1,2 2,3 l 22,67 v 2 h -16 c -1,0 -1,-1 -1,-1 z m -21,-13 h 17 l -4,-14 -4,-15 h -1 l -4,15 z"
     id="path109" />
  <path
     fill="#aa437b"
     d="m 612.11537,66 c 3,2 5,3 6,5 1,2 1,4 2,7 l 5,21 c 1,0 1,1 0,2 h -15 c -1,0 -1,-1 -2,-2 l -4,-19 c -1,-3 -3,-5 -4,-7 -2,-1 -5,-2 -8,-2 h -10 v 28 c 0,1 0,2 -1,2 h -15 c 0,0 -1,-1 -1,-2 V 33 c 0,-2 1,-4 2,-5 1,-1 2,-1 5,-1 h 26 c 8,0 14,2 18,6 4,3 6,9 6,15 0,4 -1,7 -2,11 -2,3 -4,5 -8,7 z m -6,-17 c 0,-1 0,-1 -1,-2 0,-1 -1,-2 -1,-3 -1,-1 -2,-2 -3,-2 -1,-1 -3,-1 -5,-1 h -14 v 17 h 14 c 3,0 6,-1 7,-2 2,-2 3,-4 3,-7 z"
     id="path111" />
  <path
     fill="#aa437b"
     d="m 665.11537,75 v 1 c 0,1 -1,1 -2,1 h -27 c -1,0 -1,0 -1,-1 -1,0 -1,-1 -1,-1 V 65 c 0,-1 0,-1 1,-2 h 30 z"
     id="path113" />
  <path
     fill="#aa437b"
     d="m 725.11537,39 c 0,1 -1,2 -2,2 h -20 v 60 h -16 V 41 h -19 c -1,0 -2,-1 -2,-2 V 29 27 h 58 c 1,1 1,1 1,2 z"
     id="path115" />
  <path
     fill="#aa437b"
     d="m 787.11537,99 v 2 h -33 c -4,0 -8,0 -10,-1 -3,-1 -5,-3 -6,-5 -2,-2 -3,-4 -3,-6 -1,-2 -1,-5 -1,-7 V 46 c 0,-2 0,-5 1,-7 l 3,-6 c 2,-2 4,-4 6,-5 3,-1 6,-1 9,-1 h 33 v 13 c -1,1 -1,1 -2,1 h -27 c -3,0 -5,0 -6,2 0,1 -1,2 -1,4 v 8 h 31 c 1,0 1,1 1,1 1,0 1,1 1,2 v 8 c 0,1 0,2 -1,2 0,1 0,1 -1,1 h -31 v 12 c 0,2 1,4 2,5 1,1 3,1 5,1 h 28 c 1,0 2,1 2,1 z"
     id="path117" />
  <path
     fill="#aa437b"
     d="m 824.11537,76 -13,23 c 0,1 -1,2 -2,2 h -16 -1 v -2 l 23,-36 -21,-34 v -2 h 17 l 2,2 11,21 12,-21 c 0,-1 1,-2 2,-2 h 16 v 2 l -21,34 23,36 v 2 h -17 c -1,0 -1,-1 -2,-2 z"
     id="path119" />
  <path
     fill="#727271"
     d="m 227.11537,154 v 1 h -4 -1 v -28 h -10 -1 v -4 c 0,-1 1,-1 1,-1 h 25 c 1,0 1,0 1,1 v 4 h -11 z"
     id="path121" />
  <path
     fill="#727271"
     d="m 254.11537,154 c 0,0 0,1 -1,1 h -4 c -1,0 -1,-1 -1,-1 v -31 c 0,0 0,-1 1,-1 h 4 c 1,0 1,1 1,1 v 12 h 7 c 0,0 1,0 1,-1 1,0 1,0 2,-1 0,-1 1,-1 1,-2 l 2,-8 c 1,0 1,-1 1,-1 h 4 v 1 h 1 l -3,8 c 0,2 -1,3 -1,4 -1,1 -2,2 -3,2 2,1 3,2 3,3 1,1 2,2 2,3 l 3,11 v 1 h -4 -1 v -1 l -3,-10 c -1,-2 -1,-3 -3,-3 -1,-1 -2,-1 -3,-1 h -6 z"
     id="path123" />
  <path
     fill="#727271"
     d="m 311.11537,152 c 0,1 -1,1 -1,2 -2,0 -4,1 -6,1 -3,0 -5,1 -7,1 -2,0 -5,-1 -6,-1 -2,-1 -3,-2 -4,-2 -1,-1 -2,-3 -2,-4 -1,-1 -1,-2 -1,-4 0,-1 0,-3 1,-4 0,-1 1,-2 2,-3 1,-1 2,-2 4,-3 2,-1 4,-1 7,-1 h 7 v -1 -3 c 0,-1 -1,-1 -1,-2 -1,-1 -2,-1 -3,-1 0,-1 -2,-1 -3,-1 -2,0 -3,0 -5,1 -2,0 -3,0 -4,1 h -1 v -1 l -1,-3 c 0,0 0,-1 1,-1 1,0 3,-1 5,-1 h 6 c 4,0 7,0 9,2 2,2 3,5 3,8 z m -6,-13 h -10 c -1,0 -2,0 -3,1 l -2,2 c 0,1 -1,2 -1,3 0,1 1,2 1,3 0,1 1,2 2,2 0,0 1,1 2,1 h 9 c 1,-1 1,-1 2,-1 z"
     id="path125" />
  <path
     fill="#727271"
     d="m 329.11537,154 v 1 h -4 -1 v -32 -1 h 5 v 13 h 17 v -12 -1 h 5 v 33 h -5 v -15 h -17 z"
     id="path127" />
  <path
     fill="#727271"
     d="m 364.11537,123 c 0,0 0,-1 1,-1 h 5 v 25 c 1,-1 2,-3 3,-4 1,-1 2,-3 3,-4 l 9,-15 c 0,-1 1,-1 1,-1 1,-1 1,-1 2,-1 h 2 c 0,0 1,0 1,1 1,0 1,1 1,2 v 30 h -5 v -25 h -1 c 0,1 -1,2 -1,2 0,1 -1,2 -1,2 -1,1 -1,2 -2,2 0,1 0,2 -1,2 l -10,15 c 0,1 -1,1 -1,2 h -3 c -1,0 -1,0 -2,-1 l -1,-1 z"
     id="path129" />
  <path
     fill="#727271"
     d="m 439.11537,123 v -1 h 5 l 1,1 v 24 c 1,-1 2,-3 2,-4 1,-1 2,-3 3,-4 l 10,-15 c 0,-1 0,-1 1,-1 0,-1 1,-1 2,-1 h 1 c 1,0 2,0 2,1 0,0 1,1 1,2 v 29 c 0,0 0,1 -1,1 h -4 c -1,0 -1,-1 -1,-1 v -24 c -1,1 -1,2 -1,2 -1,1 -1,2 -2,2 0,1 0,2 -1,2 0,1 -1,2 -1,2 l -10,15 c 0,1 -1,1 -1,2 h -3 c -1,0 -2,0 -2,-1 -1,0 -1,-1 -1,-1 z"
     id="path131" />
  <path
     fill="#727271"
     d="m 534.11537,122 c 3,0 5,0 7,1 2,1 4,2 5,3 2,2 3,3 4,6 0,2 1,4 1,7 0,2 0,4 -1,6 -1,2 -2,4 -3,5 -2,2 -3,3 -5,4 -2,1 -5,1 -8,2 v 11 c 0,1 0,1 -1,1 h -3 c 0,0 -1,0 -1,-1 v -11 c -3,-1 -5,-1 -7,-2 -2,-1 -4,-2 -5,-4 -2,-1 -3,-3 -3,-5 -1,-2 -1,-4 -1,-6 0,-3 0,-5 1,-7 1,-3 2,-4 3,-6 2,-1 3,-2 5,-3 2,-1 5,-1 7,-1 v -12 c 0,-1 1,-1 1,-1 h 3 c 1,0 1,0 1,1 z m 12,17 c 0,-4 -1,-7 -3,-9 -2,-2 -5,-3 -9,-4 v 25 c 2,0 4,0 6,-1 l 3,-3 c 1,-1 2,-2 2,-4 0,-1 1,-3 1,-4 z m -28,0 v 4 c 1,2 2,3 2,4 1,1 3,2 4,3 1,1 3,1 5,1 v -25 c -4,1 -7,2 -8,4 -2,2 -3,5 -3,9 z"
     id="path133" />
  <path
     fill="#727271"
     d="m 576.11537,160 c -1,3 -2,5 -3,6 -2,1 -4,2 -6,2 h -2 c -1,0 -2,0 -3,-1 -1,0 -1,0 -1,-1 l 1,-2 v -1 h 2 c 1,0 1,1 2,1 1,0 2,-1 3,-1 1,-1 2,-2 2,-4 0,0 1,0 1,-1 v -1 c 0,-1 1,-1 1,-1 v -1 h -1 c -1,0 -1,0 -2,-1 l -1,-2 -9,-29 c -1,-1 0,-1 0,-1 h 4 c 1,0 1,0 1,1 0,0 0,1 1,2 0,0 0,1 1,3 0,1 0,2 1,3 0,2 1,3 1,4 0,1 1,2 1,3 0,1 0,1 1,2 l 3,11 c 0,-1 0,-1 1,-3 0,-1 1,-2 1,-3 0,-2 1,-3 1,-4 1,-1 1,-2 1,-2 v -1 c 0,0 1,-1 1,-2 0,-1 1,-3 1,-4 1,-1 1,-2 1,-3 1,-2 1,-3 2,-4 v -2 c 0,-1 1,-1 1,-1 h 4 c 1,0 1,0 1,1 z"
     id="path135" />
  <path
     fill="#727271"
     d="m 627.11537,139 c 0,2 -1,4 -1,6 l -3,6 c -1,1 -3,2 -4,3 -2,1 -4,2 -7,2 -1,0 -2,0 -3,-1 h -5 v 12 c 0,1 0,1 -1,1 h -3 c -1,0 -1,0 -1,-1 v -42 -1 c 3,-1 5,-2 7,-2 h 6 c 3,0 5,0 7,1 2,1 3,2 4,3 l 3,6 c 0,2 1,4 1,7 z m -6,0 c 0,-3 0,-5 -1,-6 0,-2 -1,-3 -2,-4 0,-1 -1,-2 -3,-2 -1,-1 -2,-1 -4,-1 -1,0 -2,0 -3,1 h -4 v 23 c 2,0 3,1 4,1 h 3 c 2,0 3,0 4,-1 1,0 3,-1 3,-2 1,-1 2,-2 2,-4 1,-1 1,-3 1,-5 z"
     id="path137" />
  <path
     fill="#727271"
     d="m 644.11537,154 v 1 h -4 -1 v -32 -1 h 5 v 13 h 16 v -12 c 0,0 1,0 1,-1 h 5 v 33 h -5 l -1,-1 v -14 h -16 z"
     id="path139" />
  <path
     fill="#727271"
     d="m 679.11537,123 c 0,0 0,-1 1,-1 h 4 c 1,0 1,1 1,1 v 24 c 1,-1 2,-3 3,-4 0,-1 1,-3 2,-4 l 10,-15 c 0,-1 1,-1 1,-1 0,-1 1,-1 2,-1 h 1 c 1,0 2,0 2,1 1,0 1,1 1,2 v 30 h -5 l -1,-1 v -24 c 0,1 -1,2 -1,2 -1,1 -1,2 -1,2 -1,1 -1,2 -2,2 0,1 -1,2 -1,2 l -10,15 c 0,1 -1,1 -1,2 h -3 c -1,0 -2,0 -2,-1 l -1,-1 z"
     id="path141" />
  <path
     fill="#727271"
     d="m 733.11537,154 v 1 h -5 v -28 h -10 -1 v -4 c 0,-1 1,-1 1,-1 h 25 c 1,0 1,0 1,1 v 4 h -11 z"
     id="path143" />
  <path
     fill="#727271"
     d="m 767.11537,160 c -1,3 -2,5 -3,6 -2,1 -4,2 -6,2 h -2 c -1,0 -2,0 -3,-1 -1,0 -1,0 -1,-1 l 1,-2 v -1 h 3 c 0,0 0,1 1,1 1,0 3,-1 3,-1 1,-1 2,-2 3,-4 v -1 -1 l 1,-1 v -1 h -1 c -1,0 -1,0 -2,-1 l -1,-2 -9,-29 v -1 h 4 c 1,0 1,0 1,1 0,0 1,1 1,2 0,0 0,1 1,3 0,1 1,2 1,3 0,2 1,3 1,4 1,1 1,2 1,3 0,1 1,1 1,2 l 3,11 c 0,-1 1,-1 1,-3 0,-1 1,-2 1,-3 1,-2 1,-3 1,-4 1,-1 1,-2 1,-2 v -1 c 0,0 1,-1 1,-2 0,-1 1,-3 1,-4 1,-1 1,-2 2,-3 0,-2 0,-3 1,-4 v -2 l 1,-1 h 4 c 1,0 1,0 1,1 z"
     id="path145" />
  <path
     fill="#727271"
     d="m 818.11537,139 c 0,2 0,4 -1,6 l -3,6 c -1,1 -2,2 -4,3 -2,1 -4,2 -7,2 -1,0 -2,0 -3,-1 h -5 v 12 c 0,1 0,1 -1,1 h -3 c 0,0 -1,0 -1,-1 v -42 c 0,-1 0,-1 1,-1 2,-1 4,-2 6,-2 h 6 c 3,0 5,0 7,1 2,1 3,2 4,3 2,2 2,4 3,6 1,2 1,4 1,7 z m -6,0 c 0,-3 0,-5 -1,-6 0,-2 -1,-3 -1,-4 -1,-1 -2,-2 -4,-2 -1,-1 -2,-1 -4,-1 -1,0 -2,0 -3,1 h -4 v 23 c 2,0 3,1 4,1 h 4 c 1,0 2,0 3,-1 2,0 3,-1 3,-2 1,-1 2,-2 2,-4 1,-1 1,-3 1,-5 z"
     id="path147" />
  <path
     fill="#727271"
     d="m 855.11537,152 c 0,1 0,1 -1,2 -1,0 -3,1 -6,1 -2,0 -4,1 -6,1 -3,0 -5,-1 -7,-1 -1,-1 -3,-2 -4,-2 -1,-1 -1,-3 -2,-4 v -4 -4 l 3,-3 c 1,-1 2,-2 4,-3 2,-1 4,-1 6,-1 h 8 v -1 -3 c -1,-1 -1,-1 -1,-2 -1,-1 -2,-1 -3,-1 -1,-1 -2,-1 -4,-1 -1,0 -3,0 -4,1 -2,0 -3,0 -4,1 h -1 v -1 l -1,-3 v -1 c 2,0 4,-1 6,-1 h 5 c 5,0 8,0 10,2 1,2 2,5 2,8 z m -5,-13 h -10 c -1,0 -2,0 -3,1 -1,0 -1,1 -2,2 -1,1 -1,2 -1,3 0,1 0,2 1,3 0,1 1,2 1,2 1,0 2,1 3,1 h 9 c 0,-1 1,-1 2,-1 z"
     id="path149" />
</svg>
